<svg width="11" height="13" viewBox="0 0 11 13" fill="none" xmlns="http://www.w3.org/2000/svg">
<path d="M0.38446 7.4981C0.314765 7.49808 0.246376 7.48112 0.186623 7.44903C0.12687 7.41694 0.0779874 7.37094 0.0452017 7.31593C0.0124161 7.26093 -0.00303764 7.19898 0.000494068 7.13671C0.00402577 7.07446 0.0264102 7.01423 0.0652488 6.96247L5.1804 0.152118C5.21557 0.105298 5.2631 0.0669288 5.31876 0.0404002C5.37443 0.0138716 5.43653 0 5.49961 0C5.56268 0 5.62479 0.0138716 5.68046 0.0404002C5.73613 0.0669288 5.78365 0.105298 5.81882 0.152118L10.9348 6.96247C10.9736 7.01423 10.996 7.07446 10.9995 7.13671C11.003 7.19897 10.9876 7.26091 10.9548 7.31593C10.922 7.37094 10.8731 7.41695 10.8134 7.44903C10.7536 7.48113 10.6852 7.49808 10.6155 7.4981H7.9147V12.4822C7.91465 12.5734 7.87414 12.6608 7.80206 12.7252C7.72999 12.7897 7.63226 12.8259 7.53033 12.826H3.46889C3.36695 12.826 3.26918 12.7898 3.19709 12.7253C3.12501 12.6608 3.08451 12.5734 3.08451 12.4822V7.4981L0.38446 7.4981Z" fill="white"/>
</svg>
